<svg width="13" height="13" viewBox="0 0 13 13" fill="none" xmlns="http://www.w3.org/2000/svg">
<path d="M6.96418 0C3.63589 0 0.928467 2.03081 0.928467 4.52679C0.928467 7.86637 6.49723 11.8357 6.73432 12.0031C6.79914 12.0486 6.88166 12.0714 6.96418 12.0714C7.0467 12.0714 7.12922 12.0486 7.19407 12.0031C7.43113 11.8357 12.9999 7.86637 12.9999 4.52679C12.9999 2.03081 10.2925 0 6.96418 0ZM6.96418 7.04167C5.11533 7.04167 3.611 5.91342 3.611 4.52679C3.611 3.14015 5.11537 2.0119 6.96418 2.0119C8.813 2.0119 10.3174 3.14017 10.3174 4.52679C10.3174 5.9134 8.81303 7.04167 6.96418 7.04167Z" fill="white"/>
</svg>
