<svg width="13" height="13" viewBox="0 0 13 13" fill="none" xmlns="http://www.w3.org/2000/svg">
<path d="M6.96428 0C3.636 0 0.92857 2.03081 0.92857 4.52679C0.92857 7.86637 6.49733 11.8357 6.73442 12.0031C6.79924 12.0486 6.88176 12.0714 6.96428 12.0714C7.0468 12.0714 7.12932 12.0486 7.19418 12.0031C7.43123 11.8357 13 7.86637 13 4.52679C13 2.03081 10.2926 0 6.96428 0ZM6.96428 7.04167C5.11544 7.04167 3.6111 5.91342 3.6111 4.52679C3.6111 3.14015 5.11547 2.0119 6.96428 2.0119C8.8131 2.0119 10.3175 3.14017 10.3175 4.52679C10.3175 5.9134 8.81313 7.04167 6.96428 7.04167Z" fill="#282828"/>
</svg>
